<svg xmlns="http://www.w3.org/2000/svg" xmlns:xlink="http://www.w3.org/1999/xlink" version="1.1" x="0px" y="0px" viewBox="0 0 100 125" enable-background="new 0 0 100 100" xml:space="preserve"><path d="M55.917,21.382H8c-1.657,0-3,1.343-3,3v43.771c0,1.656,1.343,3,3,3h4.466c0-5.031,4.093-9.125,9.124-9.125  c5.031,0,9.124,4.094,9.124,9.125h28.203V24.382C58.917,22.725,57.574,21.382,55.917,21.382z"/><path d="M94.375,49.634l-15.34-19.176c-0.346-0.431-1.072-0.781-1.625-0.781H61.82v41.476h3.318c0-5.031,4.092-9.125,9.123-9.125  s9.124,4.094,9.124,9.125H92c1.657,0,3-1.344,3-3V51.415C95,50.863,94.721,50.065,94.375,49.634z M67.212,48.756V33.825h8.295  l11.945,14.931H67.212z"/><path d="M21.59,63.688c-4.116,0-7.466,3.349-7.466,7.465c0,4.115,3.35,7.466,7.466,7.466c4.117,0,7.466-3.349,7.466-7.466  S25.707,63.688,21.59,63.688z"/><path d="M74.264,63.688c-4.117,0-7.467,3.349-7.467,7.465c0,4.115,3.35,7.466,7.467,7.466c4.115,0,7.465-3.349,7.465-7.466  S78.379,63.688,74.264,63.688z"/><text x="0" y="115" fill="#000000" font-size="5px" font-weight="bold" font-family="'Helvetica Neue', Helvetica, Arial-Unicode, Arial, Sans-serif"></text><text x="0" y="120" fill="#000000" font-size="5px" font-weight="bold" font-family="'Helvetica Neue', Helvetica, Arial-Unicode, Arial, Sans-serif"></text></svg>