<svg xmlns="http://www.w3.org/2000/svg" viewBox="0 0 64 80" x="0px" y="0px"><title>group-people-network-business-working-networking</title><g><path d="M32,24.88a4.5,4.5,0,1,0,4.5,4.5A4.5,4.5,0,0,0,32,24.88Zm0,7a2.5,2.5,0,1,1,2.5-2.5A2.51,2.51,0,0,1,32,31.88Z"/><path d="M53,53.9a3,3,0,1,0-3-3A3,3,0,0,0,53,53.9Zm0-4a1,1,0,1,1-1,1A1,1,0,0,1,53,49.9Z"/><path d="M53,5.9a3,3,0,1,0,3,3A3,3,0,0,0,53,5.9Zm0,4a1,1,0,1,1,1-1A1,1,0,0,1,53,9.9Z"/><path d="M53,2a9,9,0,0,0-9,9,8.91,8.91,0,0,0,2,5.61L39,23.55a11,11,0,0,0-14.06,0l-7-7a9,9,0,1,0-11.7,2h0l1.77.93a.93.93,0,0,0,0-.1A9.13,9.13,0,0,0,11,19.9,9,9,0,0,0,16.55,18l7,7a11,11,0,0,0,0,14.06L16.61,46A8.95,8.95,0,0,0,8.06,44.5a.59.59,0,0,0,0-.08l-1.23.63-.11.06-.44.22,0,0A9,9,0,1,0,18.63,57.74l0,0,.23-.43.07-.14L19.59,56l-.09,0A8.95,8.95,0,0,0,18,47.39L25,40.45a11,11,0,0,0,14.06,0L46,47.39a8.95,8.95,0,0,0-1.47,8.55l-.09,0L45,57.19a.91.91,0,0,1,.07.14l.23.43,0,0A9,9,0,1,0,57.74,45.36l0,0-.44-.22-.11-.06L56,44.42l0,.08A8.92,8.92,0,0,0,47.39,46L40.45,39a11,11,0,0,0,0-14.06L47.39,18a8.95,8.95,0,0,0,8.55,1.47l0,.08L57.21,19l.11-.06.44-.22,0,0A9,9,0,0,0,53,2ZM4,10.9A7,7,0,1,1,15.82,16a5.18,5.18,0,0,0-9.64,0A6.94,6.94,0,0,1,4,10.9Zm3.88,6.25a3.2,3.2,0,0,1,6.24,0,6.91,6.91,0,0,1-6.24,0Zm0,42.1a3.2,3.2,0,0,1,6.24,0,6.91,6.91,0,0,1-6.24,0Zm7.94-1.19a5.18,5.18,0,0,0-9.64,0,7,7,0,1,1,9.64,0ZM27.84,40a4.23,4.23,0,0,1,8.32,0,8.92,8.92,0,0,1-8.32,0ZM49.89,59.26a3.2,3.2,0,0,1,6.22,0,6.91,6.91,0,0,1-6.22,0ZM53,46a7,7,0,0,1,4.8,12.08,5.17,5.17,0,0,0-9.61,0A7,7,0,0,1,53,46ZM37.92,38.77a6.24,6.24,0,0,0-11.84,0,9,9,0,1,1,11.84,0Zm12-21.51a3.2,3.2,0,0,1,6.22,0,6.91,6.91,0,0,1-6.22,0Zm7.91-1.18a5.17,5.17,0,0,0-9.61,0,7,7,0,1,1,9.61,0Z"/><path d="M11,47.9a3,3,0,1,0,3,3A3,3,0,0,0,11,47.9Zm0,4a1,1,0,1,1,1-1A1,1,0,0,1,11,51.9Z"/><path d="M11,11.8a3,3,0,1,0-3-3A3,3,0,0,0,11,11.8Zm0-4a1,1,0,1,1-1,1A1,1,0,0,1,11,7.8Z"/><path d="M35,58.84c-.65.07-1.32.12-2,.14l.07,2c.71,0,1.43-.08,2.13-.15Z"/><path d="M42.62,56.83c-.61.26-1.23.5-1.85.71l.65,1.9c.67-.23,1.34-.49,2-.77Z"/><path d="M25.14,58.12l-.51,1.94c.68.17,1.38.33,2.08.46l.36-2C26.43,58.43,25.77,58.29,25.14,58.12Z"/><path d="M31,59c-.65,0-1.32-.07-2-.14l-.22,2c.7.07,1.42.13,2.12.15Z"/><path d="M38.88,58.12c-.64.16-1.29.31-1.94.43l.36,2c.7-.13,1.4-.29,2.08-.47Z"/><path d="M23.24,57.55c-.63-.22-1.25-.46-1.85-.72l-.79,1.84c.65.28,1.31.54,2,.77Z"/><path d="M60.52,37.29l-2-.36c-.12.65-.26,1.3-.43,1.93l1.94.51C60.23,38.69,60.39,38,60.52,37.29Z"/><path d="M59.44,41.41l-1.89-.65c-.22.62-.46,1.24-.71,1.85l1.83.79C59,42.75,59.21,42.08,59.44,41.41Z"/><path d="M61,30.93c0-.71-.08-1.42-.15-2.13l-2,.22c.07.66.12,1.32.14,2Z"/><path d="M56.83,21.38c.26.61.5,1.23.71,1.85l1.9-.65c-.23-.67-.49-1.34-.77-2Z"/><path d="M61,33.06,59,33c0,.66-.07,1.33-.14,2l2,.22C60.9,34.48,61,33.76,61,33.06Z"/><path d="M58.12,25.12c.17.64.31,1.3.43,1.94l2-.36c-.13-.7-.29-1.4-.47-2.08Z"/><path d="M35,5.17l.22-2c-.72-.08-1.45-.13-2.17-.16L33,5C33.68,5,34.36,5.09,35,5.17Z"/><path d="M39,5.92,39.52,4c-.7-.19-1.41-.35-2.12-.49l-.37,2Q38,5.65,39,5.92Z"/><path d="M29,5.17C29.62,5.1,30.3,5,31,5L30.9,3c-.73,0-1.46.08-2.16.16Z"/><path d="M42.83,7.26l.8-1.84c-.66-.29-1.35-.55-2-.79l-.66,1.88Q41.9,6.86,42.83,7.26Z"/><path d="M20.36,5.43l.8,1.83c.62-.27,1.25-.52,1.89-.74l-.66-1.89C21.7,4.87,21,5.14,20.36,5.43Z"/><path d="M25,5.92c.65-.17,1.32-.33,2-.45l-.38-2c-.71.14-1.42.3-2.12.49Z"/><path d="M3,30.89,5,31c0-.66.07-1.33.15-2l-2-.22C3.1,29.46,3.05,30.18,3,30.89Z"/><path d="M3.48,37.28c.13.7.28,1.4.46,2.08l1.94-.5c-.17-.64-.31-1.29-.44-2Z"/><path d="M3.49,26.65l2,.36c.12-.65.27-1.3.44-1.94L4,24.56C3.78,25.24,3.62,26,3.49,26.65Z"/><path d="M5.36,20.52c-.28.65-.54,1.32-.77,2l1.89.65a19.68,19.68,0,0,1,.72-1.85Z"/><path d="M7.17,42.62c-.26-.61-.5-1.24-.72-1.86l-1.89.65c.23.67.49,1.34.77,2Z"/><path d="M3.17,35.16l2-.22C5.09,34.29,5,33.62,5,33L3,33C3,33.74,3.09,34.46,3.17,35.16Z"/></g><text x="0" y="79" fill="#000000" font-size="5px" font-weight="bold" font-family="'Helvetica Neue', Helvetica, Arial-Unicode, Arial, Sans-serif"></text><text x="0" y="84" fill="#000000" font-size="5px" font-weight="bold" font-family="'Helvetica Neue', Helvetica, Arial-Unicode, Arial, Sans-serif"></text></svg>