<svg xmlns="http://www.w3.org/2000/svg" xmlns:xlink="http://www.w3.org/1999/xlink" version="1.1" x="0px" y="0px" viewBox="0 0 100 125" enable-background="new 0 0 100 100" xml:space="preserve"><ellipse cx="81.15" cy="70.144" rx="6" ry="7.602"/><path d="M91.197,21.875h-62.31c-2.096,0-3.801,1.704-3.801,3.8v8.742h0.001H45.23c3.143,0,5.702,2.557,5.702,5.701v20.524h40.268  c2.097,0,3.801-1.705,3.801-3.802V25.677C95,23.576,93.298,21.875,91.197,21.875z"/><path d="M75.518,62.922H52.452c-0.841,0-1.521,0.682-1.521,1.521v4.561c0,0.842,0.68,1.521,1.521,1.521h20.435  c-0.005-0.129-0.017-0.254-0.017-0.381C72.87,67.293,73.893,64.729,75.518,62.922z"/><path d="M93.479,62.922h-6.695c1.624,1.807,2.646,4.371,2.646,7.223c0,0.127-0.012,0.252-0.017,0.379h4.065  c0.84,0,1.521-0.68,1.521-1.521v-4.562C95,63.604,94.32,62.922,93.479,62.922z"/><ellipse cx="43.007" cy="70.523" rx="6" ry="7.602"/><path d="M43.007,60.643h5.645V40.118c0-1.885-1.535-3.42-3.421-3.42H12.719c-1.68,0-3.44,1.3-3.935,2.907L5.447,50.448  C5.201,51.25,5,52.582,5,53.42v13.303c0,2.101,1.702,3.801,3.801,3.801h25.926C34.727,65.075,38.441,60.643,43.007,60.643z   M14.103,63.79c0,0.625-0.575,1.132-1.283,1.132H8.985c-0.708,0-1.283-0.507-1.283-1.132v-1.979c0-0.625,0.558-1.004,1.242-0.856  l3.915,0.864c0.686,0.15,1.244,0.779,1.244,1.406V63.79z M32.224,63.871L32.224,63.871c-0.001,0.684-0.63,1.238-1.403,1.238h-4.195  c-0.773,0-1.402-0.557-1.402-1.238v-0.619c0-0.684,0.609-1.372,1.36-1.537l4.281-0.945c0.75-0.162,1.359,0.252,1.359,0.938V63.871z   M30.423,51.898H9.302l3.041-10.641h21.121L30.423,51.898z M34.223,51.62l3.037-10.362h5.747v8.574L34.223,51.62z"/><path d="M15.642,78.125c2.901,0,5.323-2.611,5.879-6.081H9.763C10.319,75.514,12.741,78.125,15.642,78.125z"/><text x="0" y="115" fill="#000000" font-size="5px" font-weight="bold" font-family="'Helvetica Neue', Helvetica, Arial-Unicode, Arial, Sans-serif">Created by David Khai</text><text x="0" y="120" fill="#000000" font-size="5px" font-weight="bold" font-family="'Helvetica Neue', Helvetica, Arial-Unicode, Arial, Sans-serif">from the Noun Project</text></svg>