<svg xmlns="http://www.w3.org/2000/svg" xmlns:xlink="http://www.w3.org/1999/xlink" xml:space="preserve" version="1.1" style="shape-rendering:geometricPrecision;text-rendering:geometricPrecision;image-rendering:optimizeQuality;" viewBox="0 0 619 493.75" x="0px" y="0px" fill-rule="evenodd" clip-rule="evenodd"><defs><style type="text/css">
   
    .fil0 {fill:black}
   
  </style></defs><g><polygon class="fil0" points="0,0 378,0 378,254 0,254 "/><path class="fil0" d="M151 288c30,0 54,24 54,54 0,29 -24,53 -54,53 -30,0 -53,-24 -53,-53 0,-30 23,-54 53,-54zm0 32c12,0 22,10 22,22 0,12 -10,21 -22,21 -12,0 -21,-9 -21,-21 0,-12 9,-22 21,-22z"/><path class="fil0" d="M502 288c29,0 53,24 53,54 0,29 -24,53 -53,53 -30,0 -54,-24 -54,-53 0,-30 24,-54 54,-54zm0 32c12,0 21,10 21,22 0,12 -9,21 -21,21 -12,0 -22,-9 -22,-21 0,-12 10,-22 22,-22z"/><path class="fil0" d="M385 78l102 0 132 125 0 132 -57 0c-3,-31 -29,-54 -60,-54 -31,0 -57,23 -61,54l-230 0c-3,-31 -29,-54 -60,-54 -31,0 -57,23 -60,54l-91 0 0 -74 385 0 0 -183zm24 27l75 0 97 88 -69 0 -28 -23 -75 0 0 -65z"/></g><text x="0" y="410" fill="#000000" font-size="5px" font-weight="bold" font-family="'Helvetica Neue', Helvetica, Arial-Unicode, Arial, Sans-serif">Created by EnQiu</text><text x="0" y="415" fill="#000000" font-size="5px" font-weight="bold" font-family="'Helvetica Neue', Helvetica, Arial-Unicode, Arial, Sans-serif">from the Noun Project</text></svg>